# xmcd
#
# Track frame offsets: 
#        150
#        11808
#        23263
#        35766
#        44167
#        53850
#        64681
#        74537
#        84850
#        93246
#        103582
#        113173
#        127252
#        138442
#        149128
#        159643
#        170096
#        180314
#        191555
#        204594
#
# Disc length: 3008 seconds
#
# Revision: 0
# Processed by: cddbd v1.5.2PL0 Copyright (c) Steve Scherf et al.
# Submitted via: ExactAudioCopy v0.99pb5
#
DISCID=260bbe14
DTITLE=Marty Robbins - 80 Original Hits And Rarities CD4
DYEAR=1900
DGENRE=Country
TTITLE0=The Story Of My Life
TTITLE1=Beyond The Reef
TTITLE2=Moonland
TTITLE3=Don't Sing Aloha When I Go
TTITLE4=Just Married
TTITLE5=She Was Only Seventeen
TTITLE6=Stairway Of Love
TTITLE7=Ain't I The Lucky One
TTITLE8=Nothing But Sweet Lies
TTITLE9=Waltz Of The Wind
TTITLE10=Oh How I Miss You
TTITLE11=A House With Everything But Love
TTITLE12=Jodie
TTITLE13=Shackles And Chaines
TTITLE14=Paper Face
TTITLE15=Then I Turned And Slowly Walked Away
TTITLE16=Wedding Bells
TTITLE17=Kaw-Liga
TTITLE18=The Hanging Tree
TTITLE19=El Paso
EXTD=
EXTT0=
EXTT1=
EXTT2=
EXTT3=
EXTT4=
EXTT5=
EXTT6=
EXTT7=
EXTT8=
EXTT9=
EXTT10=
EXTT11=
EXTT12=
EXTT13=
EXTT14=
EXTT15=
EXTT16=
EXTT17=
EXTT18=
EXTT19=
PLAYORDER=
